<?xml version="1.0" encoding="utf-8"?>
<!-- Generator: Adobe Illustrator 24.0.2, SVG Export Plug-In . SVG Version: 6.00 Build 0)  -->
<svg version="1.1" id="Layer_1" xmlns="http://www.w3.org/2000/svg" xmlns:xlink="http://www.w3.org/1999/xlink" x="0px" y="0px"
	 viewBox="0 0 572.45 87.53" style="enable-background:new 0 0 572.45 87.53;" xml:space="preserve">
<style type="text/css">
	.st0{fill:#FFFFFF;}
</style>
<g>
	<g>
		<g>
			<path class="st0" d="M138.36,55.47h-19.01l-3.63,8.78h-9.71l18.25-40.95h9.36l18.31,40.95h-9.95L138.36,55.47z M135.38,48.27
				l-6.49-15.68l-6.49,15.68H135.38z"/>
			<path class="st0" d="M185.92,51.08h-23.81c0.43,1.95,1.44,3.49,3.04,4.62c1.6,1.13,3.59,1.7,5.97,1.7c1.64,0,3.09-0.24,4.36-0.73
				c1.27-0.49,2.45-1.26,3.54-2.31l4.86,5.26c-2.96,3.39-7.29,5.09-12.99,5.09c-3.55,0-6.69-0.69-9.42-2.08
				c-2.73-1.38-4.84-3.31-6.32-5.76c-1.48-2.46-2.22-5.25-2.22-8.37c0-3.08,0.73-5.86,2.19-8.34c1.46-2.48,3.47-4.41,6.03-5.79
				c2.55-1.38,5.41-2.08,8.57-2.08c3.08,0,5.87,0.66,8.37,1.99c2.5,1.33,4.46,3.23,5.88,5.7c1.42,2.48,2.14,5.35,2.14,8.63
				C186.1,48.74,186.04,49.56,185.92,51.08z M164.57,40.96c-1.4,1.17-2.26,2.77-2.57,4.8h15.5c-0.31-1.99-1.17-3.58-2.57-4.77
				c-1.4-1.19-3.12-1.78-5.15-1.78C167.71,39.2,165.97,39.79,164.57,40.96z"/>
			<path class="st0" d="M205.32,33.47c1.85-0.78,3.99-1.17,6.41-1.17v8.42c-1.01-0.08-1.7-0.12-2.05-0.12
				c-2.61,0-4.66,0.73-6.14,2.19c-1.48,1.46-2.22,3.66-2.22,6.58v14.86h-9.13V32.77h8.72v4.15
				C201.99,35.4,203.47,34.25,205.32,33.47z"/>
			<path class="st0" d="M222.93,62.63c-2.63-1.38-4.69-3.31-6.17-5.76c-1.48-2.46-2.22-5.25-2.22-8.37c0-3.12,0.74-5.91,2.22-8.37
				c1.48-2.46,3.54-4.38,6.17-5.76c2.63-1.38,5.61-2.08,8.92-2.08c3.31,0,6.28,0.69,8.89,2.08c2.61,1.38,4.66,3.31,6.14,5.76
				c1.48,2.46,2.22,5.25,2.22,8.37c0,3.12-0.74,5.91-2.22,8.37c-1.48,2.46-3.53,4.38-6.14,5.76c-2.61,1.38-5.58,2.08-8.89,2.08
				C228.53,64.71,225.56,64.02,222.93,62.63z M237.61,54.85c1.5-1.58,2.25-3.7,2.25-6.35c0-2.65-0.75-4.77-2.25-6.35
				c-1.5-1.58-3.42-2.37-5.76-2.37c-2.34,0-4.27,0.79-5.79,2.37s-2.28,3.7-2.28,6.35c0,2.65,0.76,4.77,2.28,6.35
				c1.52,1.58,3.45,2.37,5.79,2.37C234.19,57.22,236.11,56.43,237.61,54.85z"/>
			<path class="st0" d="M266.32,33.5v6.52h13.16v9.88h-13.16v14.35h-11.38V23.29H281V33.5H266.32z"/>
			<path class="st0" d="M319.39,32.62v31.59h-8.41l-0.93-2.23c-2.59,2.1-5.86,3.3-9.53,3.3c-9.66,0-16.56-7.05-16.56-16.87
				c0-9.78,6.9-16.75,16.56-16.75c3.72,0,7.04,1.24,9.65,3.4l1.11-2.44L319.39,32.62z M309.04,48.44c0-4.1-3-7.18-7.07-7.18
				c-4.1,0-7.07,3.08-7.07,7.18c0,4.13,3,7.21,7.07,7.21C306.04,55.64,309.04,52.56,309.04,48.44z"/>
			<path class="st0" d="M346.82,32.5v9.96h-4.22c-3.85,0-5.47,1.69-5.47,5.72v16.06h-10.88V32.65h7.29l1.7,3.51
				c2.23-2.58,4.94-3.66,8.7-3.66H346.82z"/>
			<path class="st0" d="M384.04,32.62v31.59h-8.41l-0.93-2.23c-2.59,2.1-5.86,3.3-9.53,3.3c-9.66,0-16.56-7.05-16.56-16.87
				c0-9.78,6.91-16.75,16.56-16.75c3.72,0,7.04,1.24,9.65,3.4l1.11-2.44L384.04,32.62z M373.69,48.44c0-4.1-3-7.18-7.07-7.18
				c-4.1,0-7.07,3.08-7.07,7.18c0,4.13,3,7.21,7.07,7.21S373.69,52.56,373.69,48.44z"/>
			<path class="st0" d="M390.89,21.24h10.88v43h-10.88V21.24z"/>
			<path class="st0" d="M408.62,21.24h10.88v43h-10.88V21.24z"/>
			<path class="st0" d="M424.51,48.45c0-9.79,7.41-16.83,17.71-16.83c10.27,0,17.71,7.04,17.71,16.83c0,9.76-7.45,16.83-17.71,16.83
				C431.92,65.28,424.51,58.2,424.51,48.45z M449.03,48.45c0-4.15-2.85-7.06-6.81-7.06s-6.81,2.88-6.81,7.06
				c0,4.18,2.84,7.06,6.81,7.06S449.03,52.62,449.03,48.45z"/>
			<path class="st0" d="M496.18,44.98v19.26H485.3V46.48c0-3.68-1.38-5.5-4.12-5.5c-3.39,0-5.34,2.37-5.34,6.39v16.87h-10.88V32.65
				h7.63l1.5,3.26c2.35-2.62,5.86-4.19,9.94-4.19C491.37,31.72,496.18,36.93,496.18,44.98z"/>
			<path class="st0" d="M535.24,48.15c0,0.95-0.08,1.9-0.22,2.88h-23.46c0.71,3.62,3.01,5.5,6.45,5.5c2.54,0,4.67-1.11,5.71-2.96
				h10.83c-2.22,7.21-8.61,11.71-16.54,11.71c-9.86,0-17.16-7.21-17.16-16.86c0-9.69,7.24-16.81,17.16-16.81
				C528.19,31.61,535.24,38.88,535.24,48.15L535.24,48.15z M511.75,45h12.77c-0.96-3.16-3.23-4.86-6.51-4.86
				C514.84,40.14,512.63,41.86,511.75,45z"/>
			<path class="st0" d="M552.38,65.28c-8.61,0-13.84-4.55-13.94-11.39h10.47c0,2.31,1.61,3.37,3.67,3.37c1.59,0,3.1-0.81,3.1-2.44
				c0-1.82-2.39-2.34-5.43-2.84c-4.9-0.79-11.39-2.27-11.39-9.93c0-6.33,5.4-10.42,13.49-10.42c8.04,0,13.26,4.28,13.38,10.68
				h-10.19c0-2.02-1.36-2.96-3.33-2.96c-1.75,0-2.92,0.86-2.92,2.33c0,1.8,2.42,2.22,5.42,2.75c4.99,0.89,11.62,1.92,11.62,9.94
				C566.35,60.96,560.77,65.28,552.38,65.28L552.38,65.28z"/>
		</g>
	</g>
	<g>
		<path class="st0" d="M82.68,44c0,2.75-0.34,5.43-0.97,7.98c-1.05-0.91-2.09-1.8-3.13-2.71l-0.8-0.69
			c-0.07-0.06-0.14-0.12-0.21-0.18c-0.25-0.21-0.46-0.32-0.67-0.32c-0.24,0-0.46,0.14-0.72,0.41c-0.14,0.15-0.28,0.3-0.43,0.46
			l-0.24,0.27c-0.17-0.23-0.33-0.46-0.5-0.68c-0.21-0.29-0.41-0.57-0.63-0.85c-0.15-0.21-0.33-0.45-0.67-0.48
			c-0.33-0.03-0.55,0.16-0.77,0.35c-0.15,0.14-0.29,0.27-0.44,0.41l-0.29,0.27l-1.41-1.22c-0.77-0.66-1.53-1.33-2.31-2
			c-0.05-0.04-0.1-0.1-0.15-0.15c-0.2-0.21-0.49-0.53-0.95-0.55c-0.5-0.03-0.85,0.33-1.08,0.57c-0.04,0.04-0.07,0.07-0.11,0.11
			c-1.03,0.98-2.21,1.61-3.6,1.93c-0.29,0.07-0.6,0.17-1,0.32v-0.01c-0.62-0.63-1.24-1.24-1.87-1.86l-1.36-1.34
			c-0.52-0.52-1.05-1.04-1.58-1.56c-0.27-0.27-0.56-0.46-0.91-0.59c-0.24-0.08-0.47-0.18-0.71-0.27c-0.29-0.11-0.57-0.22-0.85-0.32
			c-0.14-0.05-0.23-0.12-0.32-0.27c-0.57-0.87-1.14-1.73-1.72-2.59L51.99,38c-0.4-0.6-0.69-0.7-1.36-0.46l-1.15,0.41
			c-0.61,0.21-1.22,0.43-1.83,0.64c-0.34,0.12-0.63,0.31-0.88,0.59c-0.37,0.41-0.74,0.8-1.1,1.21c-0.45,0.49-0.91,0.99-1.36,1.49
			c-0.13,0.15-0.27,0.23-0.47,0.28c-0.38,0.09-0.77,0.19-1.15,0.29c-0.41,0.11-0.8,0.21-1.21,0.31c-0.54,0.13-0.94,0.38-1.27,0.82
			c-0.69,0.92-1.39,1.83-2.09,2.74l-0.78,1.01c-0.09-0.06-0.17-0.12-0.26-0.18c-0.19-0.13-0.38-0.26-0.56-0.39
			c-0.1-0.07-0.38-0.28-0.75-0.21C35.4,46.6,35.21,46.9,35.15,47c-0.17,0.27-0.35,0.53-0.52,0.79c-0.21,0.32-0.42,0.63-0.63,0.96
			c-0.08,0.14-0.1,0.14-0.21,0.13c-0.82-0.03-1.64-0.01-2.36-0.01c-0.12,0-0.21-0.03-0.32-0.12c-0.85-0.67-1.69-1.33-2.55-2
			l-0.2-0.15c-0.6-0.46-0.94-0.44-1.47,0.1l-0.43,0.44c-0.66,0.67-1.33,1.34-1.97,2.03c-0.1,0.1-0.14,0.12-0.29,0.1
			c-0.44-0.04-0.89-0.07-1.33-0.1c-0.4-0.03-0.8-0.05-1.2-0.09c-0.43-0.04-0.81,0.08-1.18,0.37c-1.02,0.79-2.05,1.57-3.07,2.35
			l-0.15,0.11c-0.63-2.54-0.96-5.19-0.96-7.92c0-0.46,0.02-0.93,0.04-1.39c0.24-4.91,1.55-10.08,4.23-14.86
			c0.07-0.13,0.15-0.25,0.21-0.38c0.15-0.24,0.29-0.49,0.43-0.73c5.85-9.49,16.34-15.83,28.27-15.83c14.87,0,27.48,9.82,31.7,23.32
			c0,0.01,0,0.01,0.01,0.02C82.16,37.26,82.68,40.57,82.68,44z"/>
		<g>
			<path class="st0" d="M49.49,83.03c-21.65,0-39.27-17.61-39.27-39.27c0-21.65,17.61-39.27,39.27-39.27s39.27,17.61,39.27,39.27
				C88.76,65.42,71.14,83.03,49.49,83.03z M49.49,6.71c-20.43,0-37.06,16.62-37.06,37.06c0,20.43,16.62,37.06,37.06,37.06
				S86.55,64.2,86.55,43.77C86.55,23.33,69.92,6.71,49.49,6.71z"/>
		</g>
	</g>
</g>
<g>
</g>
<g>
</g>
<g>
</g>
<g>
</g>
<g>
</g>
<g>
</g>
<g>
</g>
<g>
</g>
<g>
</g>
<g>
</g>
<g>
</g>
<g>
</g>
<g>
</g>
<g>
</g>
<g>
</g>
</svg>
